<svg xmlns="http://www.w3.org/2000/svg" version="1.1" xmlns:xlink="http://www.w3.org/1999/xlink" width="1000" height="1000"><g clip-path="url(#SvgjsClipPath1044)"><rect width="1000" height="1000" fill="#f9fafb"></rect><g transform="matrix(29.166666666666668,0,0,29.166666666666668,150,150)"><svg xmlns="http://www.w3.org/2000/svg" version="1.1" xmlns:xlink="http://www.w3.org/1999/xlink" width="24" height="24"><svg width="24" height="24" viewBox="0 0 24 24" fill="none" xmlns="http://www.w3.org/2000/svg">
<circle cx="12" cy="12" r="1.41204" fill="black"></circle>
<circle cx="16.6154" cy="9.11999" r="1.41204" fill="black"></circle>
<circle cx="7.38463" cy="9.11999" r="1.41204" fill="black"></circle>
<circle cx="12" cy="6.71999" r="1.41204" fill="black"></circle>
<circle cx="12" cy="1.41204" r="1.41204" fill="black"></circle>
<circle cx="6.46154" cy="2.88" r="1.41204" fill="black"></circle>
<circle cx="2.76924" cy="6.71999" r="1.41204" fill="black"></circle>
<circle cx="1.41204" cy="12" r="1.41204" fill="black"></circle>
<circle cx="2.76924" cy="17.28" r="1.41204" fill="black"></circle>
<circle cx="6.46154" cy="21.12" r="1.41204" fill="black"></circle>
<circle cx="12" cy="17.28" r="1.41204" fill="black"></circle>
<circle cx="12" cy="22.588" r="1.41204" fill="black"></circle>
<circle cx="17.0769" cy="21.12" r="1.41204" fill="black"></circle>
<circle cx="21.2308" cy="17.28" r="1.41204" fill="black"></circle>
<circle cx="22.588" cy="12" r="1.41204" fill="black"></circle>
<circle cx="21.2308" cy="6.71999" r="1.41204" fill="black"></circle>
<circle cx="17.0769" cy="2.88" r="1.41204" fill="black"></circle>
<circle cx="16.6154" cy="14.88" r="1.41204" fill="black"></circle>
<circle cx="7.38463" cy="14.88" r="1.41204" fill="black"></circle>
</svg></svg></g></g><defs><clipPath id="SvgjsClipPath1044"><rect width="1000" height="1000" x="0" y="0" rx="350" ry="350"></rect></clipPath></defs></svg>